<svg xmlns="http://www.w3.org/2000/svg" viewBox="0 0 1200 510" width="1200" height="510" role="img" aria-label="Every topic page opens the same six ways: overview, key concepts, example, run your code, practice questions and references — and a Code Lab you can open in the browser">
<title>Every topic page opens the same six ways</title>
<defs>
<linearGradient id="bg" x1="0" y1="0" x2="1" y2="1">
<stop offset="0%" stop-color="#0A0620"/><stop offset="50%" stop-color="#151038"/><stop offset="100%" stop-color="#0A0620"/>
</linearGradient>
<pattern id="grid" width="40" height="40" patternUnits="userSpaceOnUse"><path d="M40 0H0V40" fill="none" stroke="#8B6BFF" stroke-opacity="0.09" stroke-width="1"/></pattern>
<clipPath id="cp"><rect width="1200" height="510" rx="22"/></clipPath>
<style>
.gw{transform-box:fill-box;transform-origin:left;animation:gw 2.6s ease-in-out infinite}
@keyframes gw{0%,100%{transform:scaleX(.55)}50%{transform:scaleX(1)}}
.fl{stroke-dasharray:8 8;animation:fl 1.2s linear infinite}
@keyframes fl{to{stroke-dashoffset:-32}}
@media (prefers-reduced-motion:reduce){*{animation:none!important}}
</style>
</defs>
<g clip-path="url(#cp)">
<rect width="1200" height="510" fill="url(#bg)"/>
<rect width="1200" height="510" fill="url(#grid)"/>
<text x="26" y="52" font-family="'Segoe UI',Roboto,'Helvetica Neue',Arial,sans-serif" font-size="30" font-weight="700" fill="#FFFFFF">Every topic page opens the same six ways</text>
<text x="26" y="80" font-family="'JetBrains Mono','DejaVu Sans Mono',Consolas,ui-monospace,monospace" font-size="18" fill="#C3B8EE">SAME SHAPE, EVERY SUBJECT — SO YOU NEVER HUNT FOR ANYTHING</text>
<g>
<rect x="26" y="100" width="372" height="150" rx="16" fill="#171041" stroke="#8B6BFF" stroke-width="2.5"/>
<rect x="26" y="100" width="8" height="150" rx="4" fill="#8B6BFF"/>
<circle cx="70" cy="152" r="22" fill="none" stroke="#8B6BFF" stroke-width="2.5"/>
<text x="70" y="161" text-anchor="middle" font-family="'JetBrains Mono','DejaVu Sans Mono',Consolas,ui-monospace,monospace" font-size="22" font-weight="700" fill="#8B6BFF">1</text>
<text x="108" y="152" font-family="'Segoe UI',Roboto,'Helvetica Neue',Arial,sans-serif" font-size="26" font-weight="700" fill="#FFFFFF">Overview</text>
<text x="108" y="184" font-family="'JetBrains Mono','DejaVu Sans Mono',Consolas,ui-monospace,monospace" font-size="17" fill="#C3B8EE">What it is, in short</text>
<rect x="108" y="204" width="262" height="6" rx="3" fill="#8B6BFF" fill-opacity="0.30"/>
<rect class="gw" x="108" y="204" width="131" height="6" rx="3" fill="#8B6BFF" style="animation-delay:0.0s"/>
</g><g>
<rect x="414" y="100" width="372" height="150" rx="16" fill="#171041" stroke="#2ED8F7" stroke-width="2.5"/>
<rect x="414" y="100" width="8" height="150" rx="4" fill="#2ED8F7"/>
<circle cx="458" cy="152" r="22" fill="none" stroke="#2ED8F7" stroke-width="2.5"/>
<text x="458" y="161" text-anchor="middle" font-family="'JetBrains Mono','DejaVu Sans Mono',Consolas,ui-monospace,monospace" font-size="22" font-weight="700" fill="#2ED8F7">2</text>
<text x="496" y="152" font-family="'Segoe UI',Roboto,'Helvetica Neue',Arial,sans-serif" font-size="26" font-weight="700" fill="#FFFFFF">Key concepts</text>
<text x="496" y="184" font-family="'JetBrains Mono','DejaVu Sans Mono',Consolas,ui-monospace,monospace" font-size="17" fill="#C3B8EE">The ideas that matter</text>
<rect x="496" y="204" width="262" height="6" rx="3" fill="#2ED8F7" fill-opacity="0.30"/>
<rect class="gw" x="496" y="204" width="151" height="6" rx="3" fill="#2ED8F7" style="animation-delay:0.15s"/>
</g><g>
<rect x="802" y="100" width="372" height="150" rx="16" fill="#171041" stroke="#2FDCA0" stroke-width="2.5"/>
<rect x="802" y="100" width="8" height="150" rx="4" fill="#2FDCA0"/>
<circle cx="846" cy="152" r="22" fill="none" stroke="#2FDCA0" stroke-width="2.5"/>
<text x="846" y="161" text-anchor="middle" font-family="'JetBrains Mono','DejaVu Sans Mono',Consolas,ui-monospace,monospace" font-size="22" font-weight="700" fill="#2FDCA0">3</text>
<text x="884" y="152" font-family="'Segoe UI',Roboto,'Helvetica Neue',Arial,sans-serif" font-size="26" font-weight="700" fill="#FFFFFF">Example</text>
<text x="884" y="184" font-family="'JetBrains Mono','DejaVu Sans Mono',Consolas,ui-monospace,monospace" font-size="17" fill="#C3B8EE">Worked, with output</text>
<rect x="884" y="204" width="262" height="6" rx="3" fill="#2FDCA0" fill-opacity="0.30"/>
<rect class="gw" x="884" y="204" width="172" height="6" rx="3" fill="#2FDCA0" style="animation-delay:0.3s"/>
</g><g>
<rect x="26" y="266" width="372" height="150" rx="16" fill="#171041" stroke="#FFB645" stroke-width="2.5"/>
<rect x="26" y="266" width="8" height="150" rx="4" fill="#FFB645"/>
<circle cx="70" cy="318" r="22" fill="none" stroke="#FFB645" stroke-width="2.5"/>
<text x="70" y="327" text-anchor="middle" font-family="'JetBrains Mono','DejaVu Sans Mono',Consolas,ui-monospace,monospace" font-size="22" font-weight="700" fill="#FFB645">4</text>
<text x="108" y="318" font-family="'Segoe UI',Roboto,'Helvetica Neue',Arial,sans-serif" font-size="26" font-weight="700" fill="#FFFFFF">Run your code</text>
<text x="108" y="350" font-family="'JetBrains Mono','DejaVu Sans Mono',Consolas,ui-monospace,monospace" font-size="17" fill="#C3B8EE">Right in the browser</text>
<rect x="108" y="370" width="262" height="6" rx="3" fill="#FFB645" fill-opacity="0.30"/>
<rect class="gw" x="108" y="370" width="193" height="6" rx="3" fill="#FFB645" style="animation-delay:0.44999999999999996s"/>
</g><g>
<rect x="414" y="266" width="372" height="150" rx="16" fill="#171041" stroke="#B072FF" stroke-width="2.5"/>
<rect x="414" y="266" width="8" height="150" rx="4" fill="#B072FF"/>
<circle cx="458" cy="318" r="22" fill="none" stroke="#B072FF" stroke-width="2.5"/>
<text x="458" y="327" text-anchor="middle" font-family="'JetBrains Mono','DejaVu Sans Mono',Consolas,ui-monospace,monospace" font-size="22" font-weight="700" fill="#B072FF">5</text>
<text x="496" y="318" font-family="'Segoe UI',Roboto,'Helvetica Neue',Arial,sans-serif" font-size="26" font-weight="700" fill="#FFFFFF">Practice</text>
<text x="496" y="350" font-family="'JetBrains Mono','DejaVu Sans Mono',Consolas,ui-monospace,monospace" font-size="17" fill="#C3B8EE">Questions to try</text>
<rect x="496" y="370" width="262" height="6" rx="3" fill="#B072FF" fill-opacity="0.30"/>
<rect class="gw" x="496" y="370" width="214" height="6" rx="3" fill="#B072FF" style="animation-delay:0.6s"/>
</g><g>
<rect x="802" y="266" width="372" height="150" rx="16" fill="#171041" stroke="#FF6EA0" stroke-width="2.5"/>
<rect x="802" y="266" width="8" height="150" rx="4" fill="#FF6EA0"/>
<circle cx="846" cy="318" r="22" fill="none" stroke="#FF6EA0" stroke-width="2.5"/>
<text x="846" y="327" text-anchor="middle" font-family="'JetBrains Mono','DejaVu Sans Mono',Consolas,ui-monospace,monospace" font-size="22" font-weight="700" fill="#FF6EA0">6</text>
<text x="884" y="318" font-family="'Segoe UI',Roboto,'Helvetica Neue',Arial,sans-serif" font-size="26" font-weight="700" fill="#FFFFFF">References</text>
<text x="884" y="350" font-family="'JetBrains Mono','DejaVu Sans Mono',Consolas,ui-monospace,monospace" font-size="17" fill="#C3B8EE">Where to go next</text>
<rect x="884" y="370" width="262" height="6" rx="3" fill="#FF6EA0" fill-opacity="0.30"/>
<rect class="gw" x="884" y="370" width="235" height="6" rx="3" fill="#FF6EA0" style="animation-delay:0.75s"/>
</g>
<g>
<rect x="420" y="440" width="360" height="52" rx="26" fill="#FFB645" fill-opacity="0.20" stroke="#FFB645" stroke-width="2.5"/>
<text x="454" y="473" font-family="'JetBrains Mono','DejaVu Sans Mono',Consolas,ui-monospace,monospace" font-size="21" font-weight="700" letter-spacing="2" fill="#FFFFFF">CODE LAB</text>
<g transform="translate(688,466)">
<path class="fl" d="M0 0 H30" stroke="#FFB645" stroke-width="3.5" stroke-linecap="round" fill="none"/>
<path d="M26 -8 L37 0 L26 8" fill="none" stroke="#FFB645" stroke-width="3.5" stroke-linecap="round" stroke-linejoin="round"/>
</g>
</g>
<rect x="0.75" y="0.75" width="1198.5" height="508.5" rx="22" fill="none" stroke="#8B6BFF" stroke-opacity="0.5" stroke-width="1.5"/>
</g>
</svg>
